<svg width="301" height="301" viewBox="0 0 301 301" fill="none" xmlns="http://www.w3.org/2000/svg">
<g clip-path="url(#clip0_779_21389)">
<path d="M296.773 0.625H4.22671C2.1685 0.625 0.5 2.29351 0.5 4.35171V296.898C0.5 298.957 2.16851 300.625 4.22671 300.625H296.773C298.832 300.625 300.5 298.957 300.5 296.898V4.35171C300.5 2.2935 298.832 0.625 296.773 0.625Z" fill="white"/>
<path d="M108.872 15.2598H105.496C103.438 15.2598 101.77 16.9283 101.77 18.9865V22.3623C101.77 24.4205 103.438 26.089 105.496 26.089H108.872C110.93 26.089 112.599 24.4205 112.599 22.3623V18.9865C112.599 16.9283 110.93 15.2598 108.872 15.2598Z" fill="black"/>
<path d="M130.53 15.2598H127.154C125.096 15.2598 123.428 16.9283 123.428 18.9865V22.3623C123.428 24.4205 125.096 26.089 127.154 26.089H130.53C132.588 26.089 134.257 24.4205 134.257 22.3623V18.9865C134.257 16.9283 132.588 15.2598 130.53 15.2598Z" fill="black"/>
<path d="M141.36 15.2598H137.985C135.926 15.2598 134.258 16.9283 134.258 18.9865V22.3623C134.258 24.4205 135.926 26.089 137.985 26.089H141.36C143.419 26.089 145.087 24.4205 145.087 22.3623V18.9865C145.087 16.9283 143.419 15.2598 141.36 15.2598Z" fill="black"/>
<path d="M163.019 15.2598H159.643C157.585 15.2598 155.916 16.9283 155.916 18.9865V22.3623C155.916 24.4205 157.585 26.089 159.643 26.089H163.019C165.077 26.089 166.745 24.4205 166.745 22.3623V18.9865C166.745 16.9283 165.077 15.2598 163.019 15.2598Z" fill="black"/>
<path d="M141.36 26.0884H137.985C135.926 26.0884 134.258 27.7569 134.258 29.8151V33.1909C134.258 35.2491 135.926 36.9176 137.985 36.9176H141.36C143.419 36.9176 145.087 35.2491 145.087 33.1909V29.8151C145.087 27.7569 143.419 26.0884 141.36 26.0884Z" fill="black"/>
<path d="M173.845 26.0889H170.469C168.411 26.0889 166.742 27.7574 166.742 29.8156V33.1914C166.742 35.2496 168.411 36.9181 170.469 36.9181H173.845C175.903 36.9181 177.571 35.2496 177.571 33.1914V29.8156C177.571 27.7574 175.903 26.0889 173.845 26.0889Z" fill="black"/>
<path d="M184.677 26.0889H181.301C179.243 26.0889 177.574 27.7574 177.574 29.8156V33.1914C177.574 35.2496 179.243 36.9181 181.301 36.9181H184.677C186.735 36.9181 188.403 35.2496 188.403 33.1914V29.8156C188.403 27.7574 186.735 26.0889 184.677 26.0889Z" fill="black"/>
<path d="M195.507 26.0884H192.131C190.073 26.0884 188.404 27.7569 188.404 29.8151V33.1909C188.404 35.2491 190.073 36.9176 192.131 36.9176H195.507C197.565 36.9176 199.234 35.2491 199.234 33.1909V29.8151C199.234 27.7569 197.565 26.0884 195.507 26.0884Z" fill="black"/>
<path d="M119.698 36.918H116.322C114.264 36.918 112.596 38.5865 112.596 40.6447V44.0205C112.596 46.0787 114.264 47.7472 116.322 47.7472H119.698C121.756 47.7472 123.425 46.0787 123.425 44.0205V40.6447C123.425 38.5865 121.756 36.918 119.698 36.918Z" fill="black"/>
<path d="M152.187 36.918H148.811C146.752 36.918 145.084 38.5865 145.084 40.6447V44.0205C145.084 46.0787 146.752 47.7472 148.811 47.7472H152.187C154.245 47.7472 155.913 46.0787 155.913 44.0205V40.6447C155.913 38.5865 154.245 36.918 152.187 36.918Z" fill="black"/>
<path d="M163.019 36.918H159.643C157.585 36.918 155.916 38.5865 155.916 40.6447V44.0205C155.916 46.0787 157.585 47.7472 159.643 47.7472H163.019C165.077 47.7472 166.745 46.0787 166.745 44.0205V40.6447C166.745 38.5865 165.077 36.918 163.019 36.918Z" fill="black"/>
<path d="M184.677 36.918H181.301C179.243 36.918 177.574 38.5865 177.574 40.6447V44.0205C177.574 46.0787 179.243 47.7472 181.301 47.7472H184.677C186.735 47.7472 188.403 46.0787 188.403 44.0205V40.6447C188.403 38.5865 186.735 36.918 184.677 36.918Z" fill="black"/>
<path d="M195.507 36.918H192.131C190.073 36.918 188.404 38.5865 188.404 40.6447V44.0205C188.404 46.0787 190.073 47.7472 192.131 47.7472H195.507C197.565 47.7472 199.234 46.0787 199.234 44.0205V40.6447C199.234 38.5865 197.565 36.918 195.507 36.918Z" fill="black"/>
<path d="M108.872 47.7471H105.496C103.438 47.7471 101.77 49.4156 101.77 51.4738V54.8496C101.77 56.9078 103.438 58.5763 105.496 58.5763H108.872C110.93 58.5763 112.599 56.9078 112.599 54.8496V51.4738C112.599 49.4156 110.93 47.7471 108.872 47.7471Z" fill="black"/>
<path d="M119.698 47.7471H116.322C114.264 47.7471 112.596 49.4156 112.596 51.4738V54.8496C112.596 56.9078 114.264 58.5763 116.322 58.5763H119.698C121.756 58.5763 123.425 56.9078 123.425 54.8496V51.4738C123.425 49.4156 121.756 47.7471 119.698 47.7471Z" fill="black"/>
<path d="M130.53 47.7471H127.154C125.096 47.7471 123.428 49.4156 123.428 51.4738V54.8496C123.428 56.9078 125.096 58.5763 127.154 58.5763H130.53C132.588 58.5763 134.257 56.9078 134.257 54.8496V51.4738C134.257 49.4156 132.588 47.7471 130.53 47.7471Z" fill="black"/>
<path d="M173.845 47.7471H170.469C168.411 47.7471 166.742 49.4156 166.742 51.4738V54.8496C166.742 56.9078 168.411 58.5763 170.469 58.5763H173.845C175.903 58.5763 177.571 56.9078 177.571 54.8496V51.4738C177.571 49.4156 175.903 47.7471 173.845 47.7471Z" fill="black"/>
<path d="M119.698 58.5767H116.322C114.264 58.5767 112.596 60.2452 112.596 62.3034V65.6792C112.596 67.7374 114.264 69.4059 116.322 69.4059H119.698C121.756 69.4059 123.425 67.7374 123.425 65.6792V62.3034C123.425 60.2452 121.756 58.5767 119.698 58.5767Z" fill="black"/>
<path d="M130.53 58.5767H127.154C125.096 58.5767 123.428 60.2452 123.428 62.3034V65.6792C123.428 67.7374 125.096 69.4059 127.154 69.4059H130.53C132.588 69.4059 134.257 67.7374 134.257 65.6792V62.3034C134.257 60.2452 132.588 58.5767 130.53 58.5767Z" fill="black"/>
<path d="M152.187 58.5767H148.811C146.752 58.5767 145.084 60.2452 145.084 62.3034V65.6792C145.084 67.7374 146.752 69.4059 148.811 69.4059H152.187C154.245 69.4059 155.913 67.7374 155.913 65.6792V62.3034C155.913 60.2452 154.245 58.5767 152.187 58.5767Z" fill="black"/>
<path d="M163.019 58.5767H159.643C157.585 58.5767 155.916 60.2452 155.916 62.3034V65.6792C155.916 67.7374 157.585 69.4059 159.643 69.4059H163.019C165.077 69.4059 166.745 67.7374 166.745 65.6792V62.3034C166.745 60.2452 165.077 58.5767 163.019 58.5767Z" fill="black"/>
<path d="M184.677 58.5767H181.301C179.243 58.5767 177.574 60.2452 177.574 62.3034V65.6792C177.574 67.7374 179.243 69.4059 181.301 69.4059H184.677C186.735 69.4059 188.403 67.7374 188.403 65.6792V62.3034C188.403 60.2452 186.735 58.5767 184.677 58.5767Z" fill="black"/>
<path d="M195.507 58.5767H192.131C190.073 58.5767 188.404 60.2452 188.404 62.3034V65.6792C188.404 67.7374 190.073 69.4059 192.131 69.4059H195.507C197.565 69.4059 199.234 67.7374 199.234 65.6792V62.3034C199.234 60.2452 197.565 58.5767 195.507 58.5767Z" fill="black"/>
<path d="M119.698 69.4053H116.322C114.264 69.4053 112.596 71.0738 112.596 73.132V76.5078C112.596 78.566 114.264 80.2345 116.322 80.2345H119.698C121.756 80.2345 123.425 78.566 123.425 76.5078V73.132C123.425 71.0738 121.756 69.4053 119.698 69.4053Z" fill="black"/>
<path d="M152.187 69.4053H148.811C146.752 69.4053 145.084 71.0738 145.084 73.132V76.5078C145.084 78.566 146.752 80.2345 148.811 80.2345H152.187C154.245 80.2345 155.913 78.566 155.913 76.5078V73.132C155.913 71.0738 154.245 69.4053 152.187 69.4053Z" fill="black"/>
<path d="M184.677 69.4053H181.301C179.243 69.4053 177.574 71.0738 177.574 73.132V76.5078C177.574 78.566 179.243 80.2345 181.301 80.2345H184.677C186.735 80.2345 188.403 78.566 188.403 76.5078V73.132C188.403 71.0738 186.735 69.4053 184.677 69.4053Z" fill="black"/>
<path d="M141.36 91.0645H137.985C135.926 91.0645 134.258 92.733 134.258 94.7912V98.167C134.258 100.225 135.926 101.894 137.985 101.894H141.36C143.419 101.894 145.087 100.225 145.087 98.167V94.7912C145.087 92.733 143.419 91.0645 141.36 91.0645Z" fill="black"/>
<path d="M163.019 91.0645H159.643C157.585 91.0645 155.916 92.733 155.916 94.7912V98.167C155.916 100.225 157.585 101.894 159.643 101.894H163.019C165.077 101.894 166.745 100.225 166.745 98.167V94.7912C166.745 92.733 165.077 91.0645 163.019 91.0645Z" fill="black"/>
<path d="M184.677 91.0645H181.301C179.243 91.0645 177.574 92.733 177.574 94.7912V98.167C177.574 100.225 179.243 101.894 181.301 101.894H184.677C186.735 101.894 188.403 100.225 188.403 98.167V94.7912C188.403 92.733 186.735 91.0645 184.677 91.0645Z" fill="black"/>
<path d="M43.8955 101.894H40.5197C38.4615 101.894 36.793 103.562 36.793 105.62V108.996C36.793 111.054 38.4615 112.723 40.5197 112.723H43.8955C45.9537 112.723 47.6222 111.054 47.6222 108.996V105.62C47.6222 103.562 45.9537 101.894 43.8955 101.894Z" fill="black"/>
<path d="M130.53 101.894H127.154C125.096 101.894 123.428 103.562 123.428 105.62V108.996C123.428 111.054 125.096 112.723 127.154 112.723H130.53C132.588 112.723 134.257 111.054 134.257 108.996V105.62C134.257 103.562 132.588 101.894 130.53 101.894Z" fill="black"/>
<path d="M141.36 101.894H137.985C135.926 101.894 134.258 103.562 134.258 105.62V108.996C134.258 111.054 135.926 112.723 137.985 112.723H141.36C143.419 112.723 145.087 111.054 145.087 108.996V105.62C145.087 103.562 143.419 101.894 141.36 101.894Z" fill="black"/>
<path d="M163.019 101.894H159.643C157.585 101.894 155.916 103.562 155.916 105.62V108.996C155.916 111.054 157.585 112.723 159.643 112.723H163.019C165.077 112.723 166.745 111.054 166.745 108.996V105.62C166.745 103.562 165.077 101.894 163.019 101.894Z" fill="black"/>
<path d="M173.845 101.894H170.469C168.411 101.894 166.742 103.562 166.742 105.62V108.996C166.742 111.054 168.411 112.723 170.469 112.723H173.845C175.903 112.723 177.571 111.054 177.571 108.996V105.62C177.571 103.562 175.903 101.894 173.845 101.894Z" fill="black"/>
<path d="M184.677 101.894H181.301C179.243 101.894 177.574 103.562 177.574 105.62V108.996C177.574 111.054 179.243 112.723 181.301 112.723H184.677C186.735 112.723 188.403 111.054 188.403 108.996V105.62C188.403 103.562 186.735 101.894 184.677 101.894Z" fill="black"/>
<path d="M206.333 101.894H202.957C200.899 101.894 199.23 103.562 199.23 105.62V108.996C199.23 111.054 200.899 112.723 202.957 112.723H206.333C208.391 112.723 210.06 111.054 210.06 108.996V105.62C210.06 103.562 208.391 101.894 206.333 101.894Z" fill="black"/>
<path d="M249.653 101.894H246.277C244.219 101.894 242.551 103.562 242.551 105.62V108.996C242.551 111.054 244.219 112.723 246.277 112.723H249.653C251.712 112.723 253.38 111.054 253.38 108.996V105.62C253.38 103.562 251.712 101.894 249.653 101.894Z" fill="black"/>
<path d="M282.138 101.894H278.762C276.704 101.894 275.035 103.562 275.035 105.62V108.996C275.035 111.054 276.704 112.723 278.762 112.723H282.138C284.196 112.723 285.864 111.054 285.864 108.996V105.62C285.864 103.562 284.196 101.894 282.138 101.894Z" fill="black"/>
<path d="M76.3838 112.723H73.008C70.9498 112.723 69.2812 114.391 69.2812 116.449V119.825C69.2812 121.883 70.9498 123.552 73.008 123.552H76.3838C78.442 123.552 80.1105 121.883 80.1105 119.825V116.449C80.1105 114.391 78.442 112.723 76.3838 112.723Z" fill="black"/>
<path d="M141.36 112.723H137.985C135.926 112.723 134.258 114.391 134.258 116.449V119.825C134.258 121.883 135.926 123.552 137.985 123.552H141.36C143.419 123.552 145.087 121.883 145.087 119.825V116.449C145.087 114.391 143.419 112.723 141.36 112.723Z" fill="black"/>
<path d="M206.333 112.723H202.957C200.899 112.723 199.23 114.391 199.23 116.449V119.825C199.23 121.883 200.899 123.552 202.957 123.552H206.333C208.391 123.552 210.06 121.883 210.06 119.825V116.449C210.06 114.391 208.391 112.723 206.333 112.723Z" fill="black"/>
<path d="M217.165 112.723H213.789C211.731 112.723 210.062 114.391 210.062 116.449V119.825C210.062 121.883 211.731 123.552 213.789 123.552H217.165C219.223 123.552 220.892 121.883 220.892 119.825V116.449C220.892 114.391 219.223 112.723 217.165 112.723Z" fill="black"/>
<path d="M249.653 112.723H246.277C244.219 112.723 242.551 114.391 242.551 116.449V119.825C242.551 121.883 244.219 123.552 246.277 123.552H249.653C251.712 123.552 253.38 121.883 253.38 119.825V116.449C253.38 114.391 251.712 112.723 249.653 112.723Z" fill="black"/>
<path d="M282.138 112.723H278.762C276.704 112.723 275.035 114.391 275.035 116.449V119.825C275.035 121.883 276.704 123.552 278.762 123.552H282.138C284.196 123.552 285.864 121.883 285.864 119.825V116.449C285.864 114.391 284.196 112.723 282.138 112.723Z" fill="black"/>
<path d="M22.2373 123.552H18.8615C16.8033 123.552 15.1348 125.22 15.1348 127.278V130.654C15.1348 132.713 16.8033 134.381 18.8615 134.381H22.2373C24.2955 134.381 25.964 132.713 25.964 130.654V127.278C25.964 125.22 24.2955 123.552 22.2373 123.552Z" fill="black"/>
<path d="M33.0674 123.552H29.6916C27.6333 123.552 25.9648 125.221 25.9648 127.279V130.655C25.9648 132.713 27.6333 134.382 29.6916 134.382H33.0674C35.1256 134.382 36.7941 132.713 36.7941 130.655V127.279C36.7941 125.221 35.1256 123.552 33.0674 123.552Z" fill="black"/>
<path d="M43.8955 123.552H40.5197C38.4615 123.552 36.793 125.22 36.793 127.278V130.654C36.793 132.713 38.4615 134.381 40.5197 134.381H43.8955C45.9537 134.381 47.6222 132.713 47.6222 130.654V127.278C47.6222 125.22 45.9537 123.552 43.8955 123.552Z" fill="black"/>
<path d="M76.3838 123.552H73.008C70.9498 123.552 69.2812 125.22 69.2812 127.278V130.654C69.2812 132.713 70.9498 134.381 73.008 134.381H76.3838C78.442 134.381 80.1105 132.713 80.1105 130.654V127.278C80.1105 125.22 78.442 123.552 76.3838 123.552Z" fill="black"/>
<path d="M98.0401 123.552H94.6642C92.606 123.552 90.9375 125.22 90.9375 127.278V130.654C90.9375 132.713 92.606 134.381 94.6642 134.381H98.0401C100.098 134.381 101.767 132.713 101.767 130.654V127.278C101.767 125.22 100.098 123.552 98.0401 123.552Z" fill="black"/>
<path d="M108.872 123.552H105.496C103.438 123.552 101.77 125.22 101.77 127.278V130.654C101.77 132.713 103.438 134.381 105.496 134.381H108.872C110.93 134.381 112.599 132.713 112.599 130.654V127.278C112.599 125.22 110.93 123.552 108.872 123.552Z" fill="black"/>
<path d="M119.698 123.552H116.322C114.264 123.552 112.596 125.22 112.596 127.278V130.654C112.596 132.713 114.264 134.381 116.322 134.381H119.698C121.756 134.381 123.425 132.713 123.425 130.654V127.278C123.425 125.22 121.756 123.552 119.698 123.552Z" fill="black"/>
<path d="M152.187 123.552H148.811C146.752 123.552 145.084 125.22 145.084 127.278V130.654C145.084 132.713 146.752 134.381 148.811 134.381H152.187C154.245 134.381 155.913 132.713 155.913 130.654V127.278C155.913 125.22 154.245 123.552 152.187 123.552Z" fill="black"/>
<path d="M163.019 123.552H159.643C157.585 123.552 155.916 125.22 155.916 127.278V130.654C155.916 132.713 157.585 134.381 159.643 134.381H163.019C165.077 134.381 166.745 132.713 166.745 130.654V127.278C166.745 125.22 165.077 123.552 163.019 123.552Z" fill="black"/>
<path d="M184.677 123.552H181.301C179.243 123.552 177.574 125.22 177.574 127.278V130.654C177.574 132.713 179.243 134.381 181.301 134.381H184.677C186.735 134.381 188.403 132.713 188.403 130.654V127.278C188.403 125.22 186.735 123.552 184.677 123.552Z" fill="black"/>
<path d="M195.507 123.552H192.131C190.073 123.552 188.404 125.221 188.404 127.279V130.655C188.404 132.713 190.073 134.382 192.131 134.382H195.507C197.565 134.382 199.234 132.713 199.234 130.655V127.279C199.234 125.221 197.565 123.552 195.507 123.552Z" fill="black"/>
<path d="M249.653 123.552H246.277C244.219 123.552 242.551 125.221 242.551 127.279V130.655C242.551 132.713 244.219 134.382 246.277 134.382H249.653C251.712 134.382 253.38 132.713 253.38 130.655V127.279C253.38 125.221 251.712 123.552 249.653 123.552Z" fill="black"/>
<path d="M271.312 123.552H267.936C265.877 123.552 264.209 125.22 264.209 127.278V130.654C264.209 132.713 265.877 134.381 267.936 134.381H271.312C273.37 134.381 275.038 132.713 275.038 130.654V127.278C275.038 125.22 273.37 123.552 271.312 123.552Z" fill="black"/>
<path d="M282.138 123.552H278.762C276.704 123.552 275.035 125.22 275.035 127.278V130.654C275.035 132.713 276.704 134.381 278.762 134.381H282.138C284.196 134.381 285.864 132.713 285.864 130.654V127.278C285.864 125.22 284.196 123.552 282.138 123.552Z" fill="black"/>
<path d="M22.2373 134.381H18.8615C16.8033 134.381 15.1348 136.05 15.1348 138.108V141.484C15.1348 143.542 16.8033 145.211 18.8615 145.211H22.2373C24.2955 145.211 25.964 143.542 25.964 141.484V138.108C25.964 136.05 24.2955 134.381 22.2373 134.381Z" fill="black"/>
<path d="M65.5518 134.381H62.1759C60.1177 134.381 58.4492 136.05 58.4492 138.108V141.484C58.4492 143.542 60.1177 145.211 62.1759 145.211H65.5518C67.61 145.211 69.2785 143.542 69.2785 141.484V138.108C69.2785 136.05 67.61 134.381 65.5518 134.381Z" fill="black"/>
<path d="M108.872 134.381H105.496C103.438 134.381 101.77 136.05 101.77 138.108V141.484C101.77 143.542 103.438 145.211 105.496 145.211H108.872C110.93 145.211 112.599 143.542 112.599 141.484V138.108C112.599 136.05 110.93 134.381 108.872 134.381Z" fill="black"/>
<path d="M119.698 134.381H116.322C114.264 134.381 112.596 136.05 112.596 138.108V141.484C112.596 143.542 114.264 145.211 116.322 145.211H119.698C121.756 145.211 123.425 143.542 123.425 141.484V138.108C123.425 136.05 121.756 134.381 119.698 134.381Z" fill="black"/>
<path d="M184.677 134.381H181.301C179.243 134.381 177.574 136.05 177.574 138.108V141.484C177.574 143.542 179.243 145.211 181.301 145.211H184.677C186.735 145.211 188.403 143.542 188.403 141.484V138.108C188.403 136.05 186.735 134.381 184.677 134.381Z" fill="black"/>
<path d="M238.823 134.381H235.447C233.389 134.381 231.721 136.05 231.721 138.108V141.484C231.721 143.542 233.389 145.211 235.447 145.211H238.823C240.881 145.211 242.55 143.542 242.55 141.484V138.108C242.55 136.05 240.881 134.381 238.823 134.381Z" fill="black"/>
<path d="M33.0674 145.211H29.6916C27.6333 145.211 25.9648 146.879 25.9648 148.938V152.313C25.9648 154.372 27.6333 156.04 29.6916 156.04H33.0674C35.1256 156.04 36.7941 154.372 36.7941 152.313V148.938C36.7941 146.879 35.1256 145.211 33.0674 145.211Z" fill="black"/>
<path d="M65.5518 145.211H62.1759C60.1177 145.211 58.4492 146.879 58.4492 148.938V152.313C58.4492 154.372 60.1177 156.04 62.1759 156.04H65.5518C67.61 156.04 69.2785 154.372 69.2785 152.313V148.938C69.2785 146.879 67.61 145.211 65.5518 145.211Z" fill="black"/>
<path d="M98.0401 145.211H94.6642C92.606 145.211 90.9375 146.879 90.9375 148.938V152.313C90.9375 154.372 92.606 156.04 94.6642 156.04H98.0401C100.098 156.04 101.767 154.372 101.767 152.313V148.938C101.767 146.879 100.098 145.211 98.0401 145.211Z" fill="black"/>
<path d="M108.872 145.211H105.496C103.438 145.211 101.77 146.879 101.77 148.938V152.313C101.77 154.372 103.438 156.04 105.496 156.04H108.872C110.93 156.04 112.599 154.372 112.599 152.313V148.938C112.599 146.879 110.93 145.211 108.872 145.211Z" fill="black"/>
<path d="M141.36 145.211H137.985C135.926 145.211 134.258 146.879 134.258 148.938V152.313C134.258 154.372 135.926 156.04 137.985 156.04H141.36C143.419 156.04 145.087 154.372 145.087 152.313V148.938C145.087 146.879 143.419 145.211 141.36 145.211Z" fill="black"/>
<path d="M163.019 145.211H159.643C157.585 145.211 155.916 146.879 155.916 148.938V152.313C155.916 154.372 157.585 156.04 159.643 156.04H163.019C165.077 156.04 166.745 154.372 166.745 152.313V148.938C166.745 146.879 165.077 145.211 163.019 145.211Z" fill="black"/>
<path d="M184.677 145.211H181.301C179.243 145.211 177.574 146.879 177.574 148.938V152.313C177.574 154.372 179.243 156.04 181.301 156.04H184.677C186.735 156.04 188.403 154.372 188.403 152.313V148.938C188.403 146.879 186.735 145.211 184.677 145.211Z" fill="black"/>
<path d="M195.507 145.211H192.131C190.073 145.211 188.404 146.879 188.404 148.938V152.313C188.404 154.372 190.073 156.04 192.131 156.04H195.507C197.565 156.04 199.234 154.372 199.234 152.313V148.938C199.234 146.879 197.565 145.211 195.507 145.211Z" fill="black"/>
<path d="M206.333 145.211H202.957C200.899 145.211 199.23 146.879 199.23 148.938V152.313C199.23 154.372 200.899 156.04 202.957 156.04H206.333C208.391 156.04 210.06 154.372 210.06 152.313V148.938C210.06 146.879 208.391 145.211 206.333 145.211Z" fill="black"/>
<path d="M217.165 145.211H213.789C211.731 145.211 210.062 146.879 210.062 148.938V152.313C210.062 154.372 211.731 156.04 213.789 156.04H217.165C219.223 156.04 220.892 154.372 220.892 152.313V148.938C220.892 146.879 219.223 145.211 217.165 145.211Z" fill="black"/>
<path d="M249.653 145.211H246.277C244.219 145.211 242.551 146.879 242.551 148.938V152.313C242.551 154.372 244.219 156.04 246.277 156.04H249.653C251.712 156.04 253.38 154.372 253.38 152.313V148.938C253.38 146.879 251.712 145.211 249.653 145.211Z" fill="black"/>
<path d="M33.0674 156.04H29.6916C27.6333 156.04 25.9648 157.708 25.9648 159.766V163.142C25.9648 165.2 27.6333 166.869 29.6916 166.869H33.0674C35.1256 166.869 36.7941 165.2 36.7941 163.142V159.766C36.7941 157.708 35.1256 156.04 33.0674 156.04Z" fill="black"/>
<path d="M43.8955 156.04H40.5197C38.4615 156.04 36.793 157.709 36.793 159.767V163.143C36.793 165.201 38.4615 166.869 40.5197 166.869H43.8955C45.9537 166.869 47.6222 165.201 47.6222 163.143V159.767C47.6222 157.709 45.9537 156.04 43.8955 156.04Z" fill="black"/>
<path d="M54.7256 156.04H51.3498C49.2916 156.04 47.623 157.709 47.623 159.767V163.143C47.623 165.201 49.2916 166.869 51.3498 166.869H54.7256C56.7838 166.869 58.4523 165.201 58.4523 163.143V159.767C58.4523 157.709 56.7838 156.04 54.7256 156.04Z" fill="black"/>
<path d="M98.0401 156.04H94.6642C92.606 156.04 90.9375 157.709 90.9375 159.767V163.143C90.9375 165.201 92.606 166.869 94.6642 166.869H98.0401C100.098 166.869 101.767 165.201 101.767 163.143V159.767C101.767 157.709 100.098 156.04 98.0401 156.04Z" fill="black"/>
<path d="M108.872 156.04H105.496C103.438 156.04 101.77 157.709 101.77 159.767V163.143C101.77 165.201 103.438 166.869 105.496 166.869H108.872C110.93 166.869 112.599 165.201 112.599 163.143V159.767C112.599 157.709 110.93 156.04 108.872 156.04Z" fill="black"/>
<path d="M119.698 156.04H116.322C114.264 156.04 112.596 157.709 112.596 159.767V163.143C112.596 165.201 114.264 166.869 116.322 166.869H119.698C121.756 166.869 123.425 165.201 123.425 163.143V159.767C123.425 157.709 121.756 156.04 119.698 156.04Z" fill="black"/>
<path d="M163.019 156.04H159.643C157.585 156.04 155.916 157.709 155.916 159.767V163.143C155.916 165.201 157.585 166.869 159.643 166.869H163.019C165.077 166.869 166.745 165.201 166.745 163.143V159.767C166.745 157.709 165.077 156.04 163.019 156.04Z" fill="black"/>
<path d="M173.845 156.04H170.469C168.411 156.04 166.742 157.709 166.742 159.767V163.143C166.742 165.201 168.411 166.869 170.469 166.869H173.845C175.903 166.869 177.571 165.201 177.571 163.143V159.767C177.571 157.709 175.903 156.04 173.845 156.04Z" fill="black"/>
<path d="M184.677 156.04H181.301C179.243 156.04 177.574 157.709 177.574 159.767V163.143C177.574 165.201 179.243 166.869 181.301 166.869H184.677C186.735 166.869 188.403 165.201 188.403 163.143V159.767C188.403 157.709 186.735 156.04 184.677 156.04Z" fill="black"/>
<path d="M195.507 156.04H192.131C190.073 156.04 188.404 157.708 188.404 159.766V163.142C188.404 165.2 190.073 166.869 192.131 166.869H195.507C197.565 166.869 199.234 165.2 199.234 163.142V159.766C199.234 157.708 197.565 156.04 195.507 156.04Z" fill="black"/>
<path d="M206.333 156.04H202.957C200.899 156.04 199.23 157.709 199.23 159.767V163.143C199.23 165.201 200.899 166.869 202.957 166.869H206.333C208.391 166.869 210.06 165.201 210.06 163.143V159.767C210.06 157.709 208.391 156.04 206.333 156.04Z" fill="black"/>
<path d="M217.165 156.04H213.789C211.731 156.04 210.062 157.709 210.062 159.767V163.143C210.062 165.201 211.731 166.869 213.789 166.869H217.165C219.223 166.869 220.892 165.201 220.892 163.143V159.767C220.892 157.709 219.223 156.04 217.165 156.04Z" fill="black"/>
<path d="M227.991 156.04H224.615C222.557 156.04 220.889 157.709 220.889 159.767V163.143C220.889 165.201 222.557 166.869 224.615 166.869H227.991C230.049 166.869 231.718 165.201 231.718 163.143V159.767C231.718 157.709 230.049 156.04 227.991 156.04Z" fill="black"/>
<path d="M271.312 156.04H267.936C265.877 156.04 264.209 157.709 264.209 159.767V163.143C264.209 165.201 265.877 166.869 267.936 166.869H271.312C273.37 166.869 275.038 165.201 275.038 163.143V159.767C275.038 157.709 273.37 156.04 271.312 156.04Z" fill="black"/>
<path d="M282.138 156.04H278.762C276.704 156.04 275.035 157.709 275.035 159.767V163.143C275.035 165.201 276.704 166.869 278.762 166.869H282.138C284.196 166.869 285.864 165.201 285.864 163.143V159.767C285.864 157.709 284.196 156.04 282.138 156.04Z" fill="black"/>
<path d="M22.2373 166.869H18.8615C16.8033 166.869 15.1348 168.538 15.1348 170.596V173.972C15.1348 176.03 16.8033 177.698 18.8615 177.698H22.2373C24.2955 177.698 25.964 176.03 25.964 173.972V170.596C25.964 168.538 24.2955 166.869 22.2373 166.869Z" fill="black"/>
<path d="M54.7256 166.869H51.3498C49.2916 166.869 47.623 168.538 47.623 170.596V173.972C47.623 176.03 49.2916 177.698 51.3498 177.698H54.7256C56.7838 177.698 58.4523 176.03 58.4523 173.972V170.596C58.4523 168.538 56.7838 166.869 54.7256 166.869Z" fill="black"/>
<path d="M65.5518 166.869H62.1759C60.1177 166.869 58.4492 168.538 58.4492 170.596V173.972C58.4492 176.03 60.1177 177.698 62.1759 177.698H65.5518C67.61 177.698 69.2785 176.03 69.2785 173.972V170.596C69.2785 168.538 67.61 166.869 65.5518 166.869Z" fill="black"/>
<path d="M76.3838 166.869H73.008C70.9498 166.869 69.2812 168.538 69.2812 170.596V173.972C69.2812 176.03 70.9498 177.698 73.008 177.698H76.3838C78.442 177.698 80.1105 176.03 80.1105 173.972V170.596C80.1105 168.538 78.442 166.869 76.3838 166.869Z" fill="black"/>
<path d="M119.698 166.869H116.322C114.264 166.869 112.596 168.538 112.596 170.596V173.972C112.596 176.03 114.264 177.698 116.322 177.698H119.698C121.756 177.698 123.425 176.03 123.425 173.972V170.596C123.425 168.538 121.756 166.869 119.698 166.869Z" fill="black"/>
<path d="M130.53 166.869H127.154C125.096 166.869 123.428 168.538 123.428 170.596V173.972C123.428 176.03 125.096 177.698 127.154 177.698H130.53C132.588 177.698 134.257 176.03 134.257 173.972V170.596C134.257 168.538 132.588 166.869 130.53 166.869Z" fill="black"/>
<path d="M173.845 166.869H170.469C168.411 166.869 166.742 168.538 166.742 170.596V173.972C166.742 176.03 168.411 177.698 170.469 177.698H173.845C175.903 177.698 177.571 176.03 177.571 173.972V170.596C177.571 168.538 175.903 166.869 173.845 166.869Z" fill="black"/>
<path d="M184.677 166.869H181.301C179.243 166.869 177.574 168.538 177.574 170.596V173.972C177.574 176.03 179.243 177.698 181.301 177.698H184.677C186.735 177.698 188.403 176.03 188.403 173.972V170.596C188.403 168.538 186.735 166.869 184.677 166.869Z" fill="black"/>
<path d="M195.507 166.869H192.131C190.073 166.869 188.404 168.538 188.404 170.596V173.972C188.404 176.03 190.073 177.698 192.131 177.698H195.507C197.565 177.698 199.234 176.03 199.234 173.972V170.596C199.234 168.538 197.565 166.869 195.507 166.869Z" fill="black"/>
<path d="M206.333 166.869H202.957C200.899 166.869 199.23 168.538 199.23 170.596V173.972C199.23 176.03 200.899 177.698 202.957 177.698H206.333C208.391 177.698 210.06 176.03 210.06 173.972V170.596C210.06 168.538 208.391 166.869 206.333 166.869Z" fill="black"/>
<path d="M238.823 166.869H235.447C233.389 166.869 231.721 168.538 231.721 170.596V173.972C231.721 176.03 233.389 177.698 235.447 177.698H238.823C240.881 177.698 242.55 176.03 242.55 173.972V170.596C242.55 168.538 240.881 166.869 238.823 166.869Z" fill="black"/>
<path d="M260.48 166.869H257.104C255.045 166.869 253.377 168.538 253.377 170.596V173.972C253.377 176.03 255.045 177.698 257.104 177.698H260.48C262.538 177.698 264.206 176.03 264.206 173.972V170.596C264.206 168.538 262.538 166.869 260.48 166.869Z" fill="black"/>
<path d="M271.312 166.869H267.936C265.877 166.869 264.209 168.538 264.209 170.596V173.972C264.209 176.03 265.877 177.698 267.936 177.698H271.312C273.37 177.698 275.038 176.03 275.038 173.972V170.596C275.038 168.538 273.37 166.869 271.312 166.869Z" fill="black"/>
<path d="M282.138 166.869H278.762C276.704 166.869 275.035 168.538 275.035 170.596V173.972C275.035 176.03 276.704 177.698 278.762 177.698H282.138C284.196 177.698 285.864 176.03 285.864 173.972V170.596C285.864 168.538 284.196 166.869 282.138 166.869Z" fill="black"/>
<path d="M33.0674 177.698H29.6916C27.6333 177.698 25.9648 179.367 25.9648 181.425V184.801C25.9648 186.859 27.6333 188.528 29.6916 188.528H33.0674C35.1256 188.528 36.7941 186.859 36.7941 184.801V181.425C36.7941 179.367 35.1256 177.698 33.0674 177.698Z" fill="black"/>
<path d="M65.5518 177.698H62.1759C60.1177 177.698 58.4492 179.367 58.4492 181.425V184.801C58.4492 186.859 60.1177 188.528 62.1759 188.528H65.5518C67.61 188.528 69.2785 186.859 69.2785 184.801V181.425C69.2785 179.367 67.61 177.698 65.5518 177.698Z" fill="black"/>
<path d="M108.872 177.698H105.496C103.438 177.698 101.77 179.367 101.77 181.425V184.801C101.77 186.859 103.438 188.528 105.496 188.528H108.872C110.93 188.528 112.599 186.859 112.599 184.801V181.425C112.599 179.367 110.93 177.698 108.872 177.698Z" fill="black"/>
<path d="M119.698 177.698H116.322C114.264 177.698 112.596 179.367 112.596 181.425V184.801C112.596 186.859 114.264 188.528 116.322 188.528H119.698C121.756 188.528 123.425 186.859 123.425 184.801V181.425C123.425 179.367 121.756 177.698 119.698 177.698Z" fill="black"/>
<path d="M152.187 177.698H148.811C146.752 177.698 145.084 179.367 145.084 181.425V184.801C145.084 186.859 146.752 188.528 148.811 188.528H152.187C154.245 188.528 155.913 186.859 155.913 184.801V181.425C155.913 179.367 154.245 177.698 152.187 177.698Z" fill="black"/>
<path d="M173.845 177.698H170.469C168.411 177.698 166.742 179.367 166.742 181.425V184.801C166.742 186.859 168.411 188.528 170.469 188.528H173.845C175.903 188.528 177.571 186.859 177.571 184.801V181.425C177.571 179.367 175.903 177.698 173.845 177.698Z" fill="black"/>
<path d="M195.507 177.698H192.131C190.073 177.698 188.404 179.367 188.404 181.425V184.801C188.404 186.859 190.073 188.528 192.131 188.528H195.507C197.565 188.528 199.234 186.859 199.234 184.801V181.425C199.234 179.367 197.565 177.698 195.507 177.698Z" fill="black"/>
<path d="M206.333 177.698H202.957C200.899 177.698 199.23 179.367 199.23 181.425V184.801C199.23 186.859 200.899 188.528 202.957 188.528H206.333C208.391 188.528 210.06 186.859 210.06 184.801V181.425C210.06 179.367 208.391 177.698 206.333 177.698Z" fill="black"/>
<path d="M217.165 177.698H213.789C211.731 177.698 210.062 179.367 210.062 181.425V184.801C210.062 186.859 211.731 188.528 213.789 188.528H217.165C219.223 188.528 220.892 186.859 220.892 184.801V181.425C220.892 179.367 219.223 177.698 217.165 177.698Z" fill="black"/>
<path d="M271.312 177.698H267.936C265.877 177.698 264.209 179.367 264.209 181.425V184.801C264.209 186.859 265.877 188.528 267.936 188.528H271.312C273.37 188.528 275.038 186.859 275.038 184.801V181.425C275.038 179.367 273.37 177.698 271.312 177.698Z" fill="black"/>
<path d="M22.2373 188.528H18.8615C16.8033 188.528 15.1348 190.196 15.1348 192.255V195.63C15.1348 197.689 16.8033 199.357 18.8615 199.357H22.2373C24.2955 199.357 25.964 197.689 25.964 195.63V192.255C25.964 190.196 24.2955 188.528 22.2373 188.528Z" fill="black"/>
<path d="M43.8955 188.528H40.5197C38.4615 188.528 36.793 190.196 36.793 192.255V195.63C36.793 197.689 38.4615 199.357 40.5197 199.357H43.8955C45.9537 199.357 47.6222 197.689 47.6222 195.63V192.255C47.6222 190.196 45.9537 188.528 43.8955 188.528Z" fill="black"/>
<path d="M54.7256 188.528H51.3498C49.2916 188.528 47.623 190.196 47.623 192.255V195.63C47.623 197.689 49.2916 199.357 51.3498 199.357H54.7256C56.7838 199.357 58.4523 197.689 58.4523 195.63V192.255C58.4523 190.196 56.7838 188.528 54.7256 188.528Z" fill="black"/>
<path d="M65.5518 188.528H62.1759C60.1177 188.528 58.4492 190.196 58.4492 192.255V195.63C58.4492 197.689 60.1177 199.357 62.1759 199.357H65.5518C67.61 199.357 69.2785 197.689 69.2785 195.63V192.255C69.2785 190.196 67.61 188.528 65.5518 188.528Z" fill="black"/>
<path d="M76.3838 188.528H73.008C70.9498 188.528 69.2812 190.196 69.2812 192.255V195.63C69.2812 197.689 70.9498 199.357 73.008 199.357H76.3838C78.442 199.357 80.1105 197.689 80.1105 195.63V192.255C80.1105 190.196 78.442 188.528 76.3838 188.528Z" fill="black"/>
<path d="M119.698 188.528H116.322C114.264 188.528 112.596 190.196 112.596 192.255V195.63C112.596 197.689 114.264 199.357 116.322 199.357H119.698C121.756 199.357 123.425 197.689 123.425 195.63V192.255C123.425 190.196 121.756 188.528 119.698 188.528Z" fill="black"/>
<path d="M130.53 188.528H127.154C125.096 188.528 123.428 190.196 123.428 192.255V195.63C123.428 197.689 125.096 199.357 127.154 199.357H130.53C132.588 199.357 134.257 197.689 134.257 195.63V192.255C134.257 190.196 132.588 188.528 130.53 188.528Z" fill="black"/>
<path d="M173.845 188.528H170.469C168.411 188.528 166.742 190.196 166.742 192.255V195.63C166.742 197.689 168.411 199.357 170.469 199.357H173.845C175.903 199.357 177.571 197.689 177.571 195.63V192.255C177.571 190.196 175.903 188.528 173.845 188.528Z" fill="black"/>
<path d="M184.677 188.528H181.301C179.243 188.528 177.574 190.196 177.574 192.255V195.63C177.574 197.689 179.243 199.357 181.301 199.357H184.677C186.735 199.357 188.403 197.689 188.403 195.63V192.255C188.403 190.196 186.735 188.528 184.677 188.528Z" fill="black"/>
<path d="M249.653 188.528H246.277C244.219 188.528 242.551 190.196 242.551 192.255V195.63C242.551 197.689 244.219 199.357 246.277 199.357H249.653C251.712 199.357 253.38 197.689 253.38 195.63V192.255C253.38 190.196 251.712 188.528 249.653 188.528Z" fill="black"/>
<path d="M271.312 188.528H267.936C265.877 188.528 264.209 190.196 264.209 192.255V195.63C264.209 197.689 265.877 199.357 267.936 199.357H271.312C273.37 199.357 275.038 197.689 275.038 195.63V192.255C275.038 190.196 273.37 188.528 271.312 188.528Z" fill="black"/>
<path d="M282.138 188.528H278.762C276.704 188.528 275.035 190.196 275.035 192.255V195.63C275.035 197.689 276.704 199.357 278.762 199.357H282.138C284.196 199.357 285.864 197.689 285.864 195.63V192.255C285.864 190.196 284.196 188.528 282.138 188.528Z" fill="black"/>
<path d="M108.872 199.356H105.496C103.438 199.356 101.77 201.025 101.77 203.083V206.459C101.77 208.517 103.438 210.186 105.496 210.186H108.872C110.93 210.186 112.599 208.517 112.599 206.459V203.083C112.599 201.025 110.93 199.356 108.872 199.356Z" fill="black"/>
<path d="M119.698 199.356H116.322C114.264 199.356 112.596 201.025 112.596 203.083V206.459C112.596 208.517 114.264 210.186 116.322 210.186H119.698C121.756 210.186 123.425 208.517 123.425 206.459V203.083C123.425 201.025 121.756 199.356 119.698 199.356Z" fill="black"/>
<path d="M141.36 199.357H137.985C135.926 199.357 134.258 201.025 134.258 203.084V206.459C134.258 208.518 135.926 210.186 137.985 210.186H141.36C143.419 210.186 145.087 208.518 145.087 206.459V203.084C145.087 201.025 143.419 199.357 141.36 199.357Z" fill="black"/>
<path d="M152.187 199.356H148.811C146.752 199.356 145.084 201.025 145.084 203.083V206.459C145.084 208.517 146.752 210.186 148.811 210.186H152.187C154.245 210.186 155.913 208.517 155.913 206.459V203.083C155.913 201.025 154.245 199.356 152.187 199.356Z" fill="black"/>
<path d="M163.019 199.356H159.643C157.585 199.356 155.916 201.025 155.916 203.083V206.459C155.916 208.517 157.585 210.186 159.643 210.186H163.019C165.077 210.186 166.745 208.517 166.745 206.459V203.083C166.745 201.025 165.077 199.356 163.019 199.356Z" fill="black"/>
<path d="M249.653 199.357H246.277C244.219 199.357 242.551 201.025 242.551 203.084V206.459C242.551 208.518 244.219 210.186 246.277 210.186H249.653C251.712 210.186 253.38 208.518 253.38 206.459V203.084C253.38 201.025 251.712 199.357 249.653 199.357Z" fill="black"/>
<path d="M271.312 199.356H267.936C265.877 199.356 264.209 201.025 264.209 203.083V206.459C264.209 208.517 265.877 210.186 267.936 210.186H271.312C273.37 210.186 275.038 208.517 275.038 206.459V203.083C275.038 201.025 273.37 199.356 271.312 199.356Z" fill="black"/>
<path d="M282.138 199.356H278.762C276.704 199.356 275.035 201.025 275.035 203.083V206.459C275.035 208.517 276.704 210.186 278.762 210.186H282.138C284.196 210.186 285.864 208.517 285.864 206.459V203.083C285.864 201.025 284.196 199.356 282.138 199.356Z" fill="black"/>
<path d="M119.698 210.186H116.322C114.264 210.186 112.596 211.855 112.596 213.913V217.289C112.596 219.347 114.264 221.015 116.322 221.015H119.698C121.756 221.015 123.425 219.347 123.425 217.289V213.913C123.425 211.855 121.756 210.186 119.698 210.186Z" fill="black"/>
<path d="M130.53 210.186H127.154C125.096 210.186 123.428 211.855 123.428 213.913V217.289C123.428 219.347 125.096 221.015 127.154 221.015H130.53C132.588 221.015 134.257 219.347 134.257 217.289V213.913C134.257 211.855 132.588 210.186 130.53 210.186Z" fill="black"/>
<path d="M163.019 210.186H159.643C157.585 210.186 155.916 211.855 155.916 213.913V217.289C155.916 219.347 157.585 221.015 159.643 221.015H163.019C165.077 221.015 166.745 219.347 166.745 217.289V213.913C166.745 211.855 165.077 210.186 163.019 210.186Z" fill="black"/>
<path d="M271.312 210.186H267.936C265.877 210.186 264.209 211.855 264.209 213.913V217.289C264.209 219.347 265.877 221.015 267.936 221.015H271.312C273.37 221.015 275.038 219.347 275.038 217.289V213.913C275.038 211.855 273.37 210.186 271.312 210.186Z" fill="black"/>
<path d="M282.138 210.186H278.762C276.704 210.186 275.035 211.855 275.035 213.913V217.289C275.035 219.347 276.704 221.015 278.762 221.015H282.138C284.196 221.015 285.864 219.347 285.864 217.289V213.913C285.864 211.855 284.196 210.186 282.138 210.186Z" fill="black"/>
<path d="M108.872 221.016H105.496C103.438 221.016 101.77 222.684 101.77 224.742V228.118C101.77 230.176 103.438 231.845 105.496 231.845H108.872C110.93 231.845 112.599 230.176 112.599 228.118V224.742C112.599 222.684 110.93 221.016 108.872 221.016Z" fill="black"/>
<path d="M130.53 221.016H127.154C125.096 221.016 123.428 222.684 123.428 224.742V228.118C123.428 230.176 125.096 231.845 127.154 231.845H130.53C132.588 231.845 134.257 230.176 134.257 228.118V224.742C134.257 222.684 132.588 221.016 130.53 221.016Z" fill="black"/>
<path d="M163.019 221.016H159.643C157.585 221.016 155.916 222.684 155.916 224.742V228.118C155.916 230.176 157.585 231.845 159.643 231.845H163.019C165.077 231.845 166.745 230.176 166.745 228.118V224.742C166.745 222.684 165.077 221.016 163.019 221.016Z" fill="black"/>
<path d="M173.845 221.016H170.469C168.411 221.016 166.742 222.684 166.742 224.742V228.118C166.742 230.176 168.411 231.845 170.469 231.845H173.845C175.903 231.845 177.571 230.176 177.571 228.118V224.742C177.571 222.684 175.903 221.016 173.845 221.016Z" fill="black"/>
<path d="M184.677 221.016H181.301C179.243 221.016 177.574 222.684 177.574 224.742V228.118C177.574 230.176 179.243 231.845 181.301 231.845H184.677C186.735 231.845 188.403 230.176 188.403 228.118V224.742C188.403 222.684 186.735 221.016 184.677 221.016Z" fill="black"/>
<path d="M282.138 221.016H278.762C276.704 221.016 275.035 222.684 275.035 224.742V228.118C275.035 230.176 276.704 231.845 278.762 231.845H282.138C284.196 231.845 285.864 230.176 285.864 228.118V224.742C285.864 222.684 284.196 221.016 282.138 221.016Z" fill="black"/>
<path d="M108.872 231.845H105.496C103.438 231.845 101.77 233.513 101.77 235.571V238.947C101.77 241.005 103.438 242.674 105.496 242.674H108.872C110.93 242.674 112.599 241.005 112.599 238.947V235.571C112.599 233.513 110.93 231.845 108.872 231.845Z" fill="black"/>
<path d="M152.187 231.845H148.811C146.752 231.845 145.084 233.513 145.084 235.571V238.947C145.084 241.005 146.752 242.674 148.811 242.674H152.187C154.245 242.674 155.913 241.005 155.913 238.947V235.571C155.913 233.513 154.245 231.845 152.187 231.845Z" fill="black"/>
<path d="M163.019 231.845H159.643C157.585 231.845 155.916 233.513 155.916 235.571V238.947C155.916 241.005 157.585 242.674 159.643 242.674H163.019C165.077 242.674 166.745 241.005 166.745 238.947V235.571C166.745 233.513 165.077 231.845 163.019 231.845Z" fill="black"/>
<path d="M173.845 231.845H170.469C168.411 231.845 166.742 233.513 166.742 235.571V238.947C166.742 241.005 168.411 242.674 170.469 242.674H173.845C175.903 242.674 177.571 241.005 177.571 238.947V235.571C177.571 233.513 175.903 231.845 173.845 231.845Z" fill="black"/>
<path d="M130.53 242.674H127.154C125.096 242.674 123.428 244.342 123.428 246.401V249.776C123.428 251.835 125.096 253.503 127.154 253.503H130.53C132.588 253.503 134.257 251.835 134.257 249.776V246.401C134.257 244.342 132.588 242.674 130.53 242.674Z" fill="black"/>
<path d="M141.36 242.674H137.985C135.926 242.674 134.258 244.342 134.258 246.401V249.776C134.258 251.835 135.926 253.503 137.985 253.503H141.36C143.419 253.503 145.087 251.835 145.087 249.776V246.401C145.087 244.342 143.419 242.674 141.36 242.674Z" fill="black"/>
<path d="M206.333 242.674H202.957C200.899 242.674 199.23 244.342 199.23 246.401V249.776C199.23 251.835 200.899 253.503 202.957 253.503H206.333C208.391 253.503 210.06 251.835 210.06 249.776V246.401C210.06 244.342 208.391 242.674 206.333 242.674Z" fill="black"/>
<path d="M238.823 242.674H235.447C233.389 242.674 231.721 244.342 231.721 246.401V249.776C231.721 251.835 233.389 253.503 235.447 253.503H238.823C240.881 253.503 242.55 251.835 242.55 249.776V246.401C242.55 244.342 240.881 242.674 238.823 242.674Z" fill="black"/>
<path d="M249.653 242.674H246.277C244.219 242.674 242.551 244.342 242.551 246.401V249.776C242.551 251.835 244.219 253.503 246.277 253.503H249.653C251.712 253.503 253.38 251.835 253.38 249.776V246.401C253.38 244.342 251.712 242.674 249.653 242.674Z" fill="black"/>
<path d="M260.48 242.674H257.104C255.045 242.674 253.377 244.342 253.377 246.401V249.776C253.377 251.835 255.045 253.503 257.104 253.503H260.48C262.538 253.503 264.206 251.835 264.206 249.776V246.401C264.206 244.342 262.538 242.674 260.48 242.674Z" fill="black"/>
<path d="M271.312 242.674H267.936C265.877 242.674 264.209 244.342 264.209 246.401V249.776C264.209 251.835 265.877 253.503 267.936 253.503H271.312C273.37 253.503 275.038 251.835 275.038 249.776V246.401C275.038 244.342 273.37 242.674 271.312 242.674Z" fill="black"/>
<path d="M108.872 253.503H105.496C103.438 253.503 101.77 255.171 101.77 257.23V260.605C101.77 262.664 103.438 264.332 105.496 264.332H108.872C110.93 264.332 112.599 262.664 112.599 260.605V257.23C112.599 255.171 110.93 253.503 108.872 253.503Z" fill="black"/>
<path d="M130.53 253.503H127.154C125.096 253.503 123.428 255.171 123.428 257.23V260.605C123.428 262.664 125.096 264.332 127.154 264.332H130.53C132.588 264.332 134.257 262.664 134.257 260.605V257.23C134.257 255.171 132.588 253.503 130.53 253.503Z" fill="black"/>
<path d="M163.019 253.503H159.643C157.585 253.503 155.916 255.171 155.916 257.23V260.605C155.916 262.664 157.585 264.332 159.643 264.332H163.019C165.077 264.332 166.745 262.664 166.745 260.605V257.23C166.745 255.171 165.077 253.503 163.019 253.503Z" fill="black"/>
<path d="M173.845 253.503H170.469C168.411 253.503 166.742 255.171 166.742 257.23V260.605C166.742 262.664 168.411 264.332 170.469 264.332H173.845C175.903 264.332 177.571 262.664 177.571 260.605V257.23C177.571 255.171 175.903 253.503 173.845 253.503Z" fill="black"/>
<path d="M195.507 253.503H192.131C190.073 253.503 188.404 255.172 188.404 257.23V260.606C188.404 262.664 190.073 264.333 192.131 264.333H195.507C197.565 264.333 199.234 262.664 199.234 260.606V257.23C199.234 255.172 197.565 253.503 195.507 253.503Z" fill="black"/>
<path d="M217.165 253.503H213.789C211.731 253.503 210.062 255.171 210.062 257.23V260.605C210.062 262.664 211.731 264.332 213.789 264.332H217.165C219.223 264.332 220.892 262.664 220.892 260.605V257.23C220.892 255.171 219.223 253.503 217.165 253.503Z" fill="black"/>
<path d="M227.991 253.503H224.615C222.557 253.503 220.889 255.171 220.889 257.23V260.605C220.889 262.664 222.557 264.332 224.615 264.332H227.991C230.049 264.332 231.718 262.664 231.718 260.605V257.23C231.718 255.171 230.049 253.503 227.991 253.503Z" fill="black"/>
<path d="M238.823 253.503H235.447C233.389 253.503 231.721 255.171 231.721 257.23V260.605C231.721 262.664 233.389 264.332 235.447 264.332H238.823C240.881 264.332 242.55 262.664 242.55 260.605V257.23C242.55 255.171 240.881 253.503 238.823 253.503Z" fill="black"/>
<path d="M249.653 253.503H246.277C244.219 253.503 242.551 255.172 242.551 257.23V260.606C242.551 262.664 244.219 264.333 246.277 264.333H249.653C251.712 264.333 253.38 262.664 253.38 260.606V257.23C253.38 255.172 251.712 253.503 249.653 253.503Z" fill="black"/>
<path d="M260.48 253.503H257.104C255.045 253.503 253.377 255.171 253.377 257.23V260.605C253.377 262.664 255.045 264.332 257.104 264.332H260.48C262.538 264.332 264.206 262.664 264.206 260.605V257.23C264.206 255.171 262.538 253.503 260.48 253.503Z" fill="black"/>
<path d="M282.138 253.503H278.762C276.704 253.503 275.035 255.171 275.035 257.23V260.605C275.035 262.664 276.704 264.332 278.762 264.332H282.138C284.196 264.332 285.864 262.664 285.864 260.605V257.23C285.864 255.171 284.196 253.503 282.138 253.503Z" fill="black"/>
<path d="M141.36 264.333H137.985C135.926 264.333 134.258 266.001 134.258 268.059V271.435C134.258 273.493 135.926 275.162 137.985 275.162H141.36C143.419 275.162 145.087 273.493 145.087 271.435V268.059C145.087 266.001 143.419 264.333 141.36 264.333Z" fill="black"/>
<path d="M163.019 264.333H159.643C157.585 264.333 155.916 266.001 155.916 268.059V271.435C155.916 273.493 157.585 275.162 159.643 275.162H163.019C165.077 275.162 166.745 273.493 166.745 271.435V268.059C166.745 266.001 165.077 264.333 163.019 264.333Z" fill="black"/>
<path d="M184.677 264.333H181.301C179.243 264.333 177.574 266.001 177.574 268.059V271.435C177.574 273.493 179.243 275.162 181.301 275.162H184.677C186.735 275.162 188.403 273.493 188.403 271.435V268.059C188.403 266.001 186.735 264.333 184.677 264.333Z" fill="black"/>
<path d="M217.165 264.333H213.789C211.731 264.333 210.062 266.001 210.062 268.059V271.435C210.062 273.493 211.731 275.162 213.789 275.162H217.165C219.223 275.162 220.892 273.493 220.892 271.435V268.059C220.892 266.001 219.223 264.333 217.165 264.333Z" fill="black"/>
<path d="M238.823 264.333H235.447C233.389 264.333 231.721 266.001 231.721 268.059V271.435C231.721 273.493 233.389 275.162 235.447 275.162H238.823C240.881 275.162 242.55 273.493 242.55 271.435V268.059C242.55 266.001 240.881 264.333 238.823 264.333Z" fill="black"/>
<path d="M271.312 264.333H267.936C265.877 264.333 264.209 266.001 264.209 268.059V271.435C264.209 273.493 265.877 275.162 267.936 275.162H271.312C273.37 275.162 275.038 273.493 275.038 271.435V268.059C275.038 266.001 273.37 264.333 271.312 264.333Z" fill="black"/>
<path d="M119.698 275.162H116.322C114.264 275.162 112.596 276.831 112.596 278.889V282.265C112.596 284.323 114.264 285.991 116.322 285.991H119.698C121.756 285.991 123.425 284.323 123.425 282.265V278.889C123.425 276.831 121.756 275.162 119.698 275.162Z" fill="black"/>
<path d="M130.53 275.162H127.154C125.096 275.162 123.428 276.831 123.428 278.889V282.265C123.428 284.323 125.096 285.991 127.154 285.991H130.53C132.588 285.991 134.257 284.323 134.257 282.265V278.889C134.257 276.831 132.588 275.162 130.53 275.162Z" fill="black"/>
<path d="M141.36 275.162H137.985C135.926 275.162 134.258 276.831 134.258 278.889V282.265C134.258 284.323 135.926 285.991 137.985 285.991H141.36C143.419 285.991 145.087 284.323 145.087 282.265V278.889C145.087 276.831 143.419 275.162 141.36 275.162Z" fill="black"/>
<path d="M173.845 275.162H170.469C168.411 275.162 166.742 276.831 166.742 278.889V282.265C166.742 284.323 168.411 285.991 170.469 285.991H173.845C175.903 285.991 177.571 284.323 177.571 282.265V278.889C177.571 276.831 175.903 275.162 173.845 275.162Z" fill="black"/>
<path d="M184.677 275.162H181.301C179.243 275.162 177.574 276.831 177.574 278.889V282.265C177.574 284.323 179.243 285.991 181.301 285.991H184.677C186.735 285.991 188.403 284.323 188.403 282.265V278.889C188.403 276.831 186.735 275.162 184.677 275.162Z" fill="black"/>
<path d="M238.823 275.162H235.447C233.389 275.162 231.721 276.831 231.721 278.889V282.265C231.721 284.323 233.389 285.991 235.447 285.991H238.823C240.881 285.991 242.55 284.323 242.55 282.265V278.889C242.55 276.831 240.881 275.162 238.823 275.162Z" fill="black"/>
<path d="M271.312 275.162H267.936C265.877 275.162 264.209 276.831 264.209 278.889V282.265C264.209 284.323 265.877 285.991 267.936 285.991H271.312C273.37 285.991 275.038 284.323 275.038 282.265V278.889C275.038 276.831 273.37 275.162 271.312 275.162Z" fill="black"/>
<path d="M282.138 275.162H278.762C276.704 275.162 275.035 276.831 275.035 278.889V282.265C275.035 284.323 276.704 285.991 278.762 285.991H282.138C284.196 285.991 285.864 284.323 285.864 282.265V278.889C285.864 276.831 284.196 275.162 282.138 275.162Z" fill="black"/>
<g clip-path="url(#clip1_779_21389)">
<path d="M15.1348 41.3467C15.1348 26.9393 26.8143 15.2598 41.2217 15.2598H64.8527C79.2601 15.2598 90.9396 26.9393 90.9396 41.3467V64.9777C90.9396 79.3851 79.2601 91.0646 64.8527 91.0646H41.2217C26.8143 91.0646 15.1348 79.3851 15.1348 64.9777V41.3467ZM40.8709 26.089C32.6381 26.089 25.964 32.7631 25.964 40.9959V65.3285C25.964 73.5614 32.6381 80.2354 40.8709 80.2354H65.2035C73.4364 80.2354 80.1104 73.5614 80.1104 65.3285V40.9959C80.1104 32.7631 73.4364 26.089 65.2035 26.089H40.8709Z" fill="black"/>
</g>
<g clip-path="url(#clip2_779_21389)">
<path d="M210.062 41.3467C210.062 26.9393 221.742 15.2598 236.149 15.2598H259.78C274.188 15.2598 285.867 26.9393 285.867 41.3467V64.9777C285.867 79.3851 274.188 91.0646 259.78 91.0646H236.149C221.742 91.0646 210.062 79.3851 210.062 64.9777V41.3467ZM235.799 26.089C227.566 26.089 220.892 32.7631 220.892 40.9959V65.3285C220.892 73.5614 227.566 80.2354 235.799 80.2354H260.131C268.364 80.2354 275.038 73.5614 275.038 65.3285V40.9959C275.038 32.7631 268.364 26.089 260.131 26.089H235.799Z" fill="black"/>
</g>
<g clip-path="url(#clip3_779_21389)">
<path d="M15.1348 236.273C15.1348 221.866 26.8143 210.187 41.2217 210.187H64.8527C79.2601 210.187 90.9396 221.866 90.9396 236.273V259.904C90.9396 274.312 79.2601 285.991 64.8527 285.991H41.2217C26.8143 285.991 15.1348 274.312 15.1348 259.904V236.273ZM40.8709 221.016C32.6381 221.016 25.964 227.69 25.964 235.923V260.255C25.964 268.488 32.6381 275.162 40.8709 275.162H65.2035C73.4364 275.162 80.1104 268.488 80.1104 260.255V235.923C80.1104 227.69 73.4364 221.016 65.2035 221.016H40.8709Z" fill="black"/>
</g>
<g clip-path="url(#clip4_779_21389)">
<path d="M61.8274 36.918H44.2464C40.13 36.918 36.793 40.255 36.793 44.3714V61.9524C36.793 66.0688 40.13 69.4058 44.2464 69.4058H61.8274C65.9438 69.4058 69.2808 66.0688 69.2808 61.9524V44.3714C69.2808 40.255 65.9438 36.918 61.8274 36.918Z" fill="#6444E4"/>
</g>
<g clip-path="url(#clip5_779_21389)">
<path d="M256.755 36.918H239.174C235.058 36.918 231.721 40.255 231.721 44.3714V61.9524C231.721 66.0688 235.058 69.4058 239.174 69.4058H256.755C260.872 69.4058 264.209 66.0688 264.209 61.9524V44.3714C264.209 40.255 260.872 36.918 256.755 36.918Z" fill="#6444E4"/>
</g>
<g clip-path="url(#clip6_779_21389)">
<path d="M61.8274 231.845H44.2464C40.13 231.845 36.793 235.182 36.793 239.298V256.879C36.793 260.996 40.13 264.333 44.2464 264.333H61.8274C65.9438 264.333 69.2808 260.996 69.2808 256.879V239.298C69.2808 235.182 65.9438 231.845 61.8274 231.845Z" fill="#6444E4"/>
</g>
<path d="M108.872 80.2349H105.496C103.438 80.2349 101.77 81.9034 101.77 83.9616V87.3374C101.77 89.3956 103.438 91.0641 105.496 91.0641H108.872C110.93 91.0641 112.599 89.3956 112.599 87.3374V83.9616C112.599 81.9034 110.93 80.2349 108.872 80.2349Z" fill="black"/>
<path d="M87.2139 101.894H83.838C81.7798 101.894 80.1113 103.562 80.1113 105.62V108.996C80.1113 111.054 81.7798 112.723 83.838 112.723H87.2139C89.2721 112.723 90.9406 111.054 90.9406 108.996V105.62C90.9406 103.562 89.2721 101.894 87.2139 101.894Z" fill="black"/>
<path d="M130.53 80.2349H127.154C125.096 80.2349 123.428 81.9034 123.428 83.9616V87.3374C123.428 89.3956 125.096 91.0641 127.154 91.0641H130.53C132.588 91.0641 134.257 89.3956 134.257 87.3374V83.9616C134.257 81.9034 132.588 80.2349 130.53 80.2349Z" fill="black"/>
<path d="M87.2139 123.552H83.838C81.7798 123.552 80.1113 125.221 80.1113 127.279V130.655C80.1113 132.713 81.7798 134.382 83.838 134.382H87.2139C89.2721 134.382 90.9406 132.713 90.9406 130.655V127.279C90.9406 125.221 89.2721 123.552 87.2139 123.552Z" fill="black"/>
<path d="M152.187 80.2349H148.811C146.752 80.2349 145.084 81.9034 145.084 83.9616V87.3374C145.084 89.3956 146.752 91.0641 148.811 91.0641H152.187C154.245 91.0641 155.913 89.3956 155.913 87.3374V83.9616C155.913 81.9034 154.245 80.2349 152.187 80.2349Z" fill="black"/>
<path d="M87.2139 145.211H83.838C81.7798 145.211 80.1113 146.879 80.1113 148.938V152.313C80.1113 154.372 81.7798 156.04 83.838 156.04H87.2139C89.2721 156.04 90.9406 154.372 90.9406 152.313V148.938C90.9406 146.879 89.2721 145.211 87.2139 145.211Z" fill="black"/>
<path d="M173.845 80.2349H170.469C168.411 80.2349 166.742 81.9034 166.742 83.9616V87.3374C166.742 89.3956 168.411 91.0641 170.469 91.0641H173.845C175.903 91.0641 177.571 89.3956 177.571 87.3374V83.9616C177.571 81.9034 175.903 80.2349 173.845 80.2349Z" fill="black"/>
<path d="M87.2139 166.869H83.838C81.7798 166.869 80.1113 168.538 80.1113 170.596V173.972C80.1113 176.03 81.7798 177.698 83.838 177.698H87.2139C89.2721 177.698 90.9406 176.03 90.9406 173.972V170.596C90.9406 168.538 89.2721 166.869 87.2139 166.869Z" fill="black"/>
<path d="M195.507 80.2349H192.131C190.073 80.2349 188.404 81.9034 188.404 83.9616V87.3374C188.404 89.3956 190.073 91.0641 192.131 91.0641H195.507C197.565 91.0641 199.234 89.3956 199.234 87.3374V83.9616C199.234 81.9034 197.565 80.2349 195.507 80.2349Z" fill="black"/>
<path d="M87.2139 188.528H83.838C81.7798 188.528 80.1113 190.196 80.1113 192.255V195.63C80.1113 197.689 81.7798 199.357 83.838 199.357H87.2139C89.2721 199.357 90.9406 197.689 90.9406 195.63V192.255C90.9406 190.196 89.2721 188.528 87.2139 188.528Z" fill="black"/>
<path d="M195.507 188.528H192.131C190.073 188.528 188.404 190.196 188.404 192.255V195.63C188.404 197.689 190.073 199.357 192.131 199.357H195.507C197.565 199.357 199.234 197.689 199.234 195.63V192.255C199.234 190.196 197.565 188.528 195.507 188.528Z" fill="black"/>
<path d="M195.507 199.357H192.131C190.073 199.357 188.404 201.025 188.404 203.084V206.459C188.404 208.518 190.073 210.186 192.131 210.186H195.507C197.565 210.186 199.234 208.518 199.234 206.459V203.084C199.234 201.025 197.565 199.357 195.507 199.357Z" fill="black"/>
<path d="M195.507 210.186H192.131C190.073 210.186 188.404 211.855 188.404 213.913V217.289C188.404 219.347 190.073 221.015 192.131 221.015H195.507C197.565 221.015 199.234 219.347 199.234 217.289V213.913C199.234 211.855 197.565 210.186 195.507 210.186Z" fill="black"/>
<path d="M195.507 221.016H192.131C190.073 221.016 188.404 222.684 188.404 224.742V228.118C188.404 230.176 190.073 231.845 192.131 231.845H195.507C197.565 231.845 199.234 230.176 199.234 228.118V224.742C199.234 222.684 197.565 221.016 195.507 221.016Z" fill="black"/>
<path d="M238.823 199.356H235.447C233.389 199.356 231.721 201.025 231.721 203.083V206.459C231.721 208.517 233.389 210.186 235.447 210.186H238.823C240.881 210.186 242.55 208.517 242.55 206.459V203.083C242.55 201.025 240.881 199.356 238.823 199.356Z" fill="black"/>
<path d="M238.823 210.186H235.447C233.389 210.186 231.721 211.855 231.721 213.913V217.289C231.721 219.347 233.389 221.015 235.447 221.015H238.823C240.881 221.015 242.55 219.347 242.55 217.289V213.913C242.55 211.855 240.881 210.186 238.823 210.186Z" fill="black"/>
<path d="M238.823 221.016H235.447C233.389 221.016 231.721 222.684 231.721 224.742V228.118C231.721 230.176 233.389 231.845 235.447 231.845H238.823C240.881 231.845 242.55 230.176 242.55 228.118V224.742C242.55 222.684 240.881 221.016 238.823 221.016Z" fill="black"/>
<path d="M238.823 231.845H235.447C233.389 231.845 231.721 233.513 231.721 235.571V238.947C231.721 241.005 233.389 242.674 235.447 242.674H238.823C240.881 242.674 242.55 241.005 242.55 238.947V235.571C242.55 233.513 240.881 231.845 238.823 231.845Z" fill="black"/>
<path d="M206.333 188.528H202.957C200.899 188.528 199.23 190.196 199.23 192.255V195.63C199.23 197.689 200.899 199.357 202.957 199.357H206.333C208.391 199.357 210.06 197.689 210.06 195.63V192.255C210.06 190.196 208.391 188.528 206.333 188.528Z" fill="black"/>
<path d="M217.165 188.528H213.789C211.731 188.528 210.062 190.196 210.062 192.255V195.63C210.062 197.689 211.731 199.357 213.789 199.357H217.165C219.223 199.357 220.892 197.689 220.892 195.63V192.255C220.892 190.196 219.223 188.528 217.165 188.528Z" fill="black"/>
<path d="M227.991 188.528H224.615C222.557 188.528 220.889 190.196 220.889 192.255V195.63C220.889 197.689 222.557 199.357 224.615 199.357H227.991C230.049 199.357 231.718 197.689 231.718 195.63V192.255C231.718 190.196 230.049 188.528 227.991 188.528Z" fill="black"/>
<path d="M238.823 188.528H235.447C233.389 188.528 231.721 190.196 231.721 192.255V195.63C231.721 197.689 233.389 199.357 235.447 199.357H238.823C240.881 199.357 242.55 197.689 242.55 195.63V192.255C242.55 190.196 240.881 188.528 238.823 188.528Z" fill="black"/>
<path d="M195.507 231.845H192.131C190.073 231.845 188.404 233.513 188.404 235.571V238.947C188.404 241.005 190.073 242.674 192.131 242.674H195.507C197.565 242.674 199.234 241.005 199.234 238.947V235.571C199.234 233.513 197.565 231.845 195.507 231.845Z" fill="black"/>
<path d="M206.333 231.845H202.957C200.899 231.845 199.23 233.513 199.23 235.571V238.947C199.23 241.005 200.899 242.674 202.957 242.674H206.333C208.391 242.674 210.06 241.005 210.06 238.947V235.571C210.06 233.513 208.391 231.845 206.333 231.845Z" fill="black"/>
<path d="M217.165 231.845H213.789C211.731 231.845 210.062 233.513 210.062 235.571V238.947C210.062 241.005 211.731 242.674 213.789 242.674H217.165C219.223 242.674 220.892 241.005 220.892 238.947V235.571C220.892 233.513 219.223 231.845 217.165 231.845Z" fill="black"/>
<path d="M227.991 231.845H224.615C222.557 231.845 220.889 233.513 220.889 235.571V238.947C220.889 241.005 222.557 242.674 224.615 242.674H227.991C230.049 242.674 231.718 241.005 231.718 238.947V235.571C231.718 233.513 230.049 231.845 227.991 231.845Z" fill="black"/>
<path d="M217.165 210.186H213.789C211.731 210.186 210.062 211.855 210.062 213.913V217.289C210.062 219.347 211.731 221.015 213.789 221.015H217.165C219.223 221.015 220.892 219.347 220.892 217.289V213.913C220.892 211.855 219.223 210.186 217.165 210.186Z" fill="black"/>
</g>
<defs>
<clipPath id="clip0_779_21389">
<path d="M0.5 24.625C0.5 11.3702 11.2452 0.625 24.5 0.625H276.5C289.755 0.625 300.5 11.3702 300.5 24.625V276.625C300.5 289.88 289.755 300.625 276.5 300.625H24.5C11.2452 300.625 0.5 289.88 0.5 276.625V24.625Z" fill="white"/>
</clipPath>
<clipPath id="clip1_779_21389">
<rect width="75.8049" height="75.8049" fill="white" transform="translate(15.1348 15.2598)"/>
</clipPath>
<clipPath id="clip2_779_21389">
<rect width="75.8049" height="75.8049" fill="white" transform="translate(210.062 15.2598)"/>
</clipPath>
<clipPath id="clip3_779_21389">
<rect width="75.8049" height="75.8049" fill="white" transform="translate(15.1348 210.186)"/>
</clipPath>
<clipPath id="clip4_779_21389">
<rect width="32.4878" height="32.4878" fill="white" transform="translate(36.793 36.918)"/>
</clipPath>
<clipPath id="clip5_779_21389">
<rect width="32.4878" height="32.4878" fill="white" transform="translate(231.721 36.918)"/>
</clipPath>
<clipPath id="clip6_779_21389">
<rect width="32.4878" height="32.4878" fill="white" transform="translate(36.793 231.845)"/>
</clipPath>
</defs>
</svg>
